<svg width="245" height="56" viewBox="0 0 245 56" fill="none" xmlns="http://www.w3.org/2000/svg">
<path d="M0 55.102H55.102V7.73255e-08H0V55.102ZM44.4962 22.2492H32.8528V10.6058H44.4962V22.2492ZM10.6036 10.6058H22.2535V32.8528H44.4962V44.4962H10.6036V10.6058ZM90.9838 7.73255e-08C85.5346 7.73255e-08 80.2079 1.61585 75.6773 4.64319C71.1465 7.67054 67.6152 11.9734 65.5299 17.0077C63.4447 22.0421 62.8992 27.5815 63.9622 32.9258C65.0253 38.2702 67.6492 43.1793 71.5022 47.0324C75.3553 50.8856 80.2644 53.5095 85.6087 54.5726C90.9533 55.6356 96.4927 55.0902 101.527 53.0049C106.561 50.9196 110.864 47.3883 113.892 42.8575C116.919 38.3267 118.535 33 118.535 27.551C118.526 20.2466 115.621 13.2439 110.456 8.07894C105.291 2.91396 98.2882 0.00852853 90.9838 7.73255e-08ZM90.9838 44.4962C87.6324 44.4962 84.3561 43.5024 81.5694 41.6403C78.783 39.7785 76.6109 37.1321 75.3284 34.0356C74.0459 30.9394 73.7104 27.5323 74.3641 24.2451C75.018 20.9581 76.632 17.9388 79.0017 15.5689C81.3716 13.1991 84.3909 11.5852 87.6779 10.9314C90.9649 10.2776 94.372 10.6131 97.4685 11.8957C100.565 13.1782 103.211 15.3501 105.073 18.1368C106.935 20.9233 107.929 24.1995 107.929 27.551C107.922 32.0431 106.135 36.3493 102.958 39.5256C99.7819 42.702 95.4758 44.4893 90.9838 44.4962ZM217.125 7.73255e-08C211.675 -0.000408085 206.349 1.61506 201.818 4.64214C197.287 7.66923 193.756 11.972 191.67 17.0062C189.585 22.0404 189.038 27.5802 190.101 32.9246C191.164 38.2691 193.788 43.1785 197.641 47.0317C201.494 50.885 206.403 53.5093 211.748 54.5724C217.091 55.6356 222.631 55.0902 227.667 53.0051C232.7 50.9198 237.003 47.3885 240.03 42.8577C243.059 38.3269 244.674 33.0002 244.674 27.551C244.666 20.247 241.761 13.2446 236.597 8.07969C231.433 2.91478 224.429 0.00910855 217.125 7.73255e-08ZM217.125 44.4962C213.774 44.4966 210.498 43.5031 207.711 41.6414C204.924 39.7798 202.751 37.1334 201.469 34.0371C200.186 30.9409 199.85 27.5336 200.503 24.2464C201.157 20.9594 202.771 17.9398 205.141 15.5697C207.51 13.1996 210.53 11.5855 213.817 10.9315C217.104 10.2775 220.511 10.613 223.607 11.8955C226.704 13.1779 229.351 15.3498 231.214 18.1366C233.074 20.9233 234.068 24.1995 234.068 27.551C234.062 32.0427 232.275 36.3484 229.098 39.5248C225.922 42.7011 221.617 44.4889 217.125 44.4962ZM154.054 7.73255e-08C148.604 7.73255e-08 143.278 1.61585 138.747 4.64319C134.216 7.67054 130.685 11.9734 128.6 17.0077C126.514 22.0421 125.969 27.5815 127.032 32.9258C128.095 38.2702 130.719 43.1793 134.572 47.0324C138.425 50.8856 143.334 53.5095 148.678 54.5726C154.023 55.6356 159.562 55.0902 164.597 53.0049C169.631 50.9196 173.934 47.3883 176.961 42.8575C179.989 38.3267 181.605 33 181.605 27.551C181.596 20.2466 178.69 13.2439 173.526 8.07894C168.361 2.91396 161.358 0.00852853 154.054 7.73255e-08ZM154.054 44.4962C150.931 44.4977 147.869 43.6365 145.205 42.0075C142.541 40.3785 140.379 38.0453 138.957 35.265C137.536 32.4848 136.91 29.3658 137.15 26.2526C137.389 23.1392 138.484 20.1525 140.313 17.6221C142.143 15.0918 144.636 13.1162 147.518 11.9134C150.399 10.7106 153.557 10.3274 156.643 10.8061C159.728 11.2848 162.622 12.6067 165.003 14.626C167.385 16.6453 169.162 19.2835 170.139 22.2492H154.054V32.8528H170.139C169.02 36.2369 166.865 39.183 163.977 41.2728C161.09 43.3628 157.618 44.4904 154.054 44.4962Z" fill="#F1F1F1"/>
</svg>
