<svg width="70" height="69" viewBox="0 0 70 69" fill="none" xmlns="http://www.w3.org/2000/svg">
<path d="M46.0312 28.5703C50.4301 31.7287 55.7098 33.4257 61.125 33.4219V22.6406C57.1219 22.6406 53.2827 21.0504 50.4521 18.2198C47.6215 15.3891 46.0313 11.55 46.0312 7.54688H35.25V42.0469C35.2499 43.3974 34.8874 44.7232 34.2003 45.8859C33.5132 47.0486 32.5267 48.0056 31.3436 48.6571C30.1606 49.3086 28.8244 49.6307 27.4745 49.5898C26.1246 49.5489 24.8103 49.1465 23.6689 48.4245C22.5275 47.7026 21.6008 46.6876 20.9854 45.4854C20.3699 44.2832 20.0884 42.9379 20.1701 41.5898C20.2518 40.2418 20.6937 38.9403 21.4498 37.8213C22.206 36.7022 23.2485 35.8065 24.4687 35.2277V24.0152C21.0365 24.6306 17.851 26.2123 15.2862 28.5747C12.7213 30.937 10.8836 33.982 9.98879 37.3523C9.09394 40.7225 9.17907 44.278 10.2342 47.6016C11.2893 50.9251 13.2706 53.8787 15.9456 56.1156C18.6205 58.3525 21.8781 59.7799 25.3358 60.2303C28.7936 60.6807 32.3081 60.1354 35.4668 58.6583C38.6255 57.1812 41.2973 54.8337 43.1686 51.8913C45.0399 48.949 46.0329 45.5339 46.0312 42.0469V28.5703Z" stroke="#F1F1F1" stroke-width="4.3125" stroke-linecap="round" stroke-linejoin="round"/>
</svg>
